<svg width="80" height="80" viewBox="0 0 80 80" fill="none" xmlns="http://www.w3.org/2000/svg">
<path d="M71.4062 0H27.6562C22.9177 0 19.0625 3.87027 19.0625 8.62745V28.2353H8.59375C3.85516 28.2353 0 32.1056 0 36.8627V61.9608C0 66.718 3.85516 70.5882 8.59375 70.5882H22.9644L28.5186 78.9522C28.9533 79.6067 29.6852 80 30.4688 80C31.2523 80 31.9842 79.6067 32.4189 78.9522L37.9731 70.5882H52.3438C57.0823 70.5882 60.9375 66.718 60.9375 61.9608V42.3529H71.4062C76.1448 42.3529 80 38.4827 80 33.7255V8.62745C80 3.87027 76.1448 0 71.4062 0V0ZM56.25 61.9608C56.25 64.1231 54.4977 65.8824 52.3438 65.8824H36.7188C35.9352 65.8824 35.2033 66.2756 34.7686 66.9302L30.4688 73.4052L26.1689 66.9302C25.7342 66.2756 25.0023 65.8824 24.2188 65.8824H8.59375C6.43984 65.8824 4.6875 64.1231 4.6875 61.9608V36.8627C4.6875 34.7004 6.43984 32.9412 8.59375 32.9412H19.0625V33.7255C19.0625 35.1373 19.4042 36.4695 20.0055 37.6471H11.7188C10.4244 37.6471 9.375 38.7006 9.375 40C9.375 41.2995 10.4244 42.3529 11.7188 42.3529H42.027L45.152 47.0588H11.7188C10.4244 47.0588 9.375 48.1123 9.375 49.4118C9.375 50.7112 10.4244 51.7647 11.7188 51.7647H49.5312C50.315 51.7647 51.0467 51.3715 51.4813 50.7169L56.25 43.5358V61.9608ZM75.3125 33.7255C75.3125 35.8878 73.5602 37.6471 71.4062 37.6471H55.7812C54.9975 37.6471 54.2658 38.0403 53.8312 38.6949L49.5312 45.1699L45.2313 38.6949C44.7967 38.0403 44.0648 37.6471 43.2812 37.6471H27.6562C25.5023 37.6471 23.75 35.8878 23.75 33.7255V8.62745C23.75 6.4651 25.5023 4.70588 27.6562 4.70588H71.4062C73.5602 4.70588 75.3125 6.4651 75.3125 8.62745V33.7255Z" fill="#2352DE"/>
<path d="M49.4118 56.4707H11.7647C10.4653 56.4707 9.41177 57.5242 9.41177 58.8236C9.41177 60.1231 10.4653 61.1766 11.7647 61.1766H49.4118C50.7112 61.1766 51.7647 60.1231 51.7647 58.8236C51.7647 57.5242 50.7112 56.4707 49.4118 56.4707Z" fill="#2352DE"/>
<path d="M61.0443 16.3827L54.6811 15.458L51.8355 9.6919C51.4391 8.88876 50.6212 8.38037 49.7255 8.38037C48.8298 8.38037 48.0119 8.88876 47.6155 9.6919L44.7699 15.458L38.4068 16.3827C37.5205 16.5114 36.784 17.1322 36.5073 17.9841C36.2304 18.8359 36.4613 19.771 37.1026 20.3961L41.707 24.8841L40.6199 31.2215C40.4686 32.1043 40.8315 32.9964 41.5561 33.523C42.2805 34.0491 43.241 34.1187 44.0341 33.7021L49.7255 30.7098L55.4168 33.7021C55.7611 33.883 56.137 33.9724 56.5115 33.9724C56.9994 33.9724 57.485 33.8208 57.8948 33.5231C58.6193 32.9967 58.9823 32.1044 58.8309 31.2216L57.7439 24.8842L62.3482 20.3962C62.9897 19.7711 63.2206 18.8361 62.9437 17.9843C62.667 17.1324 61.9307 16.5115 61.0443 16.3827V16.3827ZM53.5733 22.3779C53.0187 22.9184 52.7657 23.6972 52.8966 24.4605L53.3868 27.3181L50.8206 25.9688C50.4777 25.7887 50.1017 25.6985 49.7257 25.6985C49.3497 25.6985 48.9735 25.7885 48.6308 25.9688L46.0645 27.3181L46.5547 24.4605C46.6857 23.6972 46.4326 22.9184 45.878 22.3779L43.8019 20.3542L46.6712 19.9372C47.4377 19.8259 48.1001 19.3446 48.4428 18.6502L49.726 16.0502L51.0091 18.6502C51.3519 19.3446 52.0143 19.8259 52.7807 19.9372L55.6501 20.3542L53.5733 22.3779Z" fill="#2352DE"/>
</svg>
