<svg width="91" height="80" viewBox="0 0 91 80" fill="none" xmlns="http://www.w3.org/2000/svg">
<path d="M45.4999 31.2107C54.0262 31.2107 60.9628 24.2102 60.9628 15.6054C60.9628 7.00053 54.0262 0 45.4999 0C36.9737 0 30.037 7.00053 30.037 15.6054C30.037 24.2102 36.9737 31.2107 45.4999 31.2107ZM45.4999 5.38116C51.0861 5.38116 55.6308 9.9677 55.6308 15.6054C55.6308 21.243 51.0861 25.8296 45.4999 25.8296C39.9137 25.8296 35.3691 21.243 35.3691 15.6054C35.3691 9.9677 39.9137 5.38116 45.4999 5.38116Z" fill="#2352DE"/>
<path d="M76.7811 31.2104C82.1712 31.2104 86.5565 26.7848 86.5565 21.3449C86.5565 15.9051 82.1712 11.4795 76.7811 11.4795C71.391 11.4795 67.0057 15.9051 67.0057 21.3449C67.0057 26.7848 71.391 31.2104 76.7811 31.2104ZM76.7811 16.8606C79.2312 16.8606 81.2245 18.8723 81.2245 21.3449C81.2245 23.8176 79.2312 25.8292 76.7811 25.8292C74.331 25.8292 72.3378 23.8176 72.3378 21.3449C72.3378 18.8723 74.331 16.8606 76.7811 16.8606Z" fill="#2352DE"/>
<path d="M78.9317 37.3091H74.8083C69.9492 37.3091 65.7547 40.2063 63.8433 44.3677C59.9081 40.0323 54.2556 37.3091 47.9845 37.3091H43.0155C36.7444 37.3091 31.0919 40.0323 27.1567 44.3677C25.2452 40.2063 21.0506 37.3091 16.1916 37.3091H12.0681C5.41378 37.3091 0 42.7397 0 49.4149V69.0041C0 71.902 2.34502 74.2597 5.22751 74.2597H21.5305C21.8039 77.4705 24.4791 79.9996 27.7304 79.9996H63.2696C66.5207 79.9996 69.1959 77.4705 69.4695 74.2597H85.5862C88.5714 74.2597 91 71.8184 91 68.8176V49.4149C90.9998 42.7397 85.586 37.3091 78.9317 37.3091V37.3091ZM5.33202 49.4149C5.33202 45.7069 8.35386 42.6902 12.0681 42.6902H16.1916C19.9059 42.6902 22.9277 45.7069 22.9277 49.4149V51.2572C21.1349 55.9682 21.5058 58.7916 21.5058 68.8785H5.33202V49.4149ZM64.162 73.7178C64.162 74.2145 63.7617 74.6184 63.2696 74.6184H27.7302C27.2381 74.6184 26.8378 74.2143 26.8378 73.7178V59.017C26.8378 50.0144 34.0951 42.6902 43.0154 42.6902H47.9843C56.9047 42.6902 64.162 50.0144 64.162 59.0169V73.7178ZM85.6678 68.8176C85.6678 68.9103 86.6617 68.8785 69.494 68.8785C69.494 58.7169 69.8621 55.9605 68.0721 51.2572V49.4149C68.0721 45.7069 71.094 42.6902 74.8083 42.6902H78.9317C82.646 42.6902 85.6678 45.7069 85.6678 49.4149V68.8176Z" fill="#2352DE"/>
<path d="M14.2187 31.2104C19.6088 31.2104 23.9941 26.7848 23.9941 21.3449C23.9941 15.9051 19.6088 11.4795 14.2187 11.4795C8.82856 11.4795 4.44333 15.9051 4.44333 21.3449C4.44333 26.7848 8.82856 31.2104 14.2187 31.2104ZM14.2187 16.8606C16.6688 16.8606 18.6621 18.8723 18.6621 21.3449C18.6621 23.8176 16.6688 25.8292 14.2187 25.8292C11.7686 25.8292 9.77535 23.8176 9.77535 21.3449C9.77535 18.8723 11.7686 16.8606 14.2187 16.8606Z" fill="#2352DE"/>
</svg>
