<svg width="80" height="80" viewBox="0 0 80 80" fill="none" xmlns="http://www.w3.org/2000/svg">
<path d="M49.0917 15.4183C52.1811 12.934 52.8805 10.2784 52.923 8.48794C53.0269 4.13216 49.5717 0.94466 49.1773 0.595753C48.2003 -0.269247 46.7038 -0.182059 45.8347 0.790597C44.9658 1.76325 45.0534 3.25279 46.0305 4.11794C46.0526 4.13763 48.2416 6.17638 48.1892 8.37622C48.1612 9.54826 47.4831 10.6523 46.1162 11.7515C43.0268 14.2358 42.3274 16.8914 42.2848 18.6819C42.1808 23.0376 45.6362 26.2251 46.0305 26.5742C46.4827 26.9745 47.0471 27.1717 47.6092 27.1717C48.2615 27.1717 48.9109 26.9061 49.3777 26.3834C50.2466 25.4108 50.1638 23.9253 49.1867 23.0603C48.5653 22.4978 46.9645 20.6317 47.019 18.7759C47.0534 17.6104 47.7313 16.512 49.0917 15.4183Z" fill="#2352DE"/>
<path d="M34.0695 15.4183C37.1589 12.934 37.8583 10.2784 37.9008 8.48794C38.0048 4.13216 34.5495 0.94466 34.1551 0.595753C33.1783 -0.269247 31.6816 -0.182059 30.8125 0.790597C29.9436 1.76325 30.0312 3.25279 31.0083 4.11794C31.0304 4.13763 33.2194 6.17638 33.167 8.37622C33.1391 9.54826 32.461 10.6523 31.094 11.7515C28.0046 14.2358 27.3052 16.8914 27.2627 18.6819C27.1587 23.0376 30.614 26.2251 31.0083 26.5742C31.4605 26.9745 32.0249 27.1717 32.587 27.1717C33.2394 27.1717 33.8887 26.9061 34.3555 26.3834C35.2245 25.4108 35.1416 23.9253 34.1645 23.0603C33.5431 22.4978 31.9424 20.6317 31.9968 18.7759C32.0312 17.6104 32.7091 16.512 34.0695 15.4183Z" fill="#2352DE"/>
<path d="M67.9642 38.4608H65.1621V36.7324C65.1621 35.4308 64.1021 34.3755 62.7945 34.3755H2.36764C1.06013 34.3755 0 35.4306 0 36.7324V49.1711C0 60.1622 6.11137 69.8267 15.2865 75.2864H2.36905C1.06154 75.2864 0.00141268 76.3416 0.00141268 77.6433C0.00141268 78.945 1.06123 80.0002 2.36905 80.0002H62.7946C64.1021 80.0002 65.1622 78.945 65.1622 77.6433C65.1622 76.3416 64.1023 75.2864 62.7946 75.2864H49.8757C55.0932 72.1817 59.3198 67.7178 61.995 62.4225H67.9644C74.6008 62.4225 80 57.0478 80 50.4416C80 43.8353 74.6006 38.4608 67.9642 38.4608ZM60.427 49.1711C60.4268 63.5711 47.9352 75.2864 32.581 75.2864C17.2269 75.2864 4.73527 63.5711 4.73527 49.1711V39.0892H60.4268V49.1711H60.427ZM67.9642 57.7089H63.8901C64.7174 54.9966 65.1621 52.1321 65.1621 49.1711V43.1742H67.9642C71.9897 43.1742 75.2647 46.4344 75.2647 50.4416C75.2647 54.4488 71.9897 57.7089 67.9642 57.7089Z" fill="#2352DE"/>
<path d="M19.0474 15.4183C22.1367 12.934 22.8361 10.2784 22.8787 8.48794C22.9826 4.13216 19.5273 0.94466 19.1329 0.595753C18.156 -0.269247 16.6595 -0.182059 15.7904 0.790597C14.9214 1.7631 15.009 3.25278 15.9861 4.11794C16.0082 4.13763 18.1972 6.17638 18.1448 8.37622C18.1169 9.54825 17.4388 10.6523 16.0718 11.7515C12.9824 14.2358 12.283 16.8914 12.2405 18.6818C12.1367 23.0375 15.592 26.225 15.9863 26.574C16.4374 26.9734 16.9991 27.1698 17.5589 27.1698C18.2114 27.1698 18.861 26.9028 19.3289 26.3792C20.1979 25.4065 20.1103 23.917 19.1332 23.0519C19.1111 23.0322 16.9221 20.9934 16.9745 18.7936C17.0021 17.6215 17.6802 16.5173 19.0474 15.4183Z" fill="#2352DE"/>
</svg>
